<?xml version="1.0"?>
<svg xmlns="http://www.w3.org/2000/svg" xmlns:xlink="http://www.w3.org/1999/xlink" version="1.1" id="Capa_1" x="0px" y="0px" viewBox="0 0 480 480" style="enable-background:new 0 0 480 480;" xml:space="preserve" width="512px" height="512px"><g><link xmlns="" type="text/css" id="dark-mode" rel="stylesheet" class="active-path"/><style xmlns="" type="text/css" id="dark-mode-custom-style" class="active-path"/><g>
	<g>
		<g>
			<path d="M472,463.999v-24c0-4.418-3.582-8-8-8H16c-4.418,0-8,3.582-8,8v24c-4.418,0-8,3.582-8,8s3.582,8,8,8h464     c4.418,0,8-3.582,8-8S476.418,463.999,472,463.999z M456,463.999H24v-16h432V463.999z" data-original="#000000" class="active-path" fill="#808080"/>
			<path d="M474.608,80.439l-232-80c-1.69-0.583-3.526-0.583-5.216,0l-232,80C2.166,81.551,0.001,84.587,0,87.999v32     c0,4.418,3.582,8,8,8h464c4.418,0,8-3.582,8-8v-32C479.999,84.587,477.834,81.551,474.608,80.439z M464,111.999H16V93.702     l224-77.24l224,77.24V111.999z" data-original="#000000" class="active-path" fill="#808080"/>
			<path d="M48,399.999c0,8.837,7.163,16,16,16h32c8.837,0,16-7.163,16-16v-224c0-8.837-7.163-16-16-16H64c-8.837,0-16,7.163-16,16     V399.999z M64,175.999h32v224H64V175.999z" data-original="#000000" class="active-path" fill="#808080"/>
			<path d="M144,159.999c-8.837,0-16,7.163-16,16v224c0,8.837,7.163,16,16,16h32c8.837,0,16-7.163,16-16v-224     c0-8.837-7.163-16-16-16H144z M176,399.999h-32v-224h32V399.999z" data-original="#000000" class="active-path" fill="#808080"/>
			<path d="M224,159.999c-8.837,0-16,7.163-16,16v224c0,8.837,7.163,16,16,16h32c8.837,0,16-7.163,16-16v-224     c0-8.837-7.163-16-16-16H224z M256,399.999h-32v-224h32V399.999z" data-original="#000000" class="active-path" fill="#808080"/>
			<path d="M304,159.999c-8.837,0-16,7.163-16,16v224c0,8.837,7.163,16,16,16h32c8.837,0,16-7.163,16-16v-224     c0-8.837-7.163-16-16-16H304z M336,399.999h-32v-224h32V399.999z" data-original="#000000" class="active-path" fill="#808080"/>
			<path d="M416,159.999h-32c-8.837,0-16,7.163-16,16v224c0,8.837,7.163,16,16,16h32c8.837,0,16-7.163,16-16v-224     C432,167.162,424.837,159.999,416,159.999z M416,399.999h-32v-224h32V399.999z" data-original="#000000" class="active-path" fill="#808080"/>
			<path d="M424,135.999H56c-4.418,0-8,3.582-8,8s3.582,8,8,8h368c4.418,0,8-3.582,8-8S428.418,135.999,424,135.999z" data-original="#000000" class="active-path" fill="#808080"/>
		</g>
	</g>
</g></g> </svg>
