<svg xmlns="http://www.w3.org/2000/svg" width="60.57" height="60.564" viewBox="0 0 20.19 20.188">
  <metadata><?xpacket begin="﻿" id="W5M0MpCehiHzreSzNTczkc9d"?>
<x:xmpmeta xmlns:x="adobe:ns:meta/" x:xmptk="Adobe XMP Core 5.6-c140 79.160451, 2017/05/06-01:08:21        ">
   <rdf:RDF xmlns:rdf="http://www.w3.org/1999/02/22-rdf-syntax-ns#">
      <rdf:Description rdf:about=""/>
   </rdf:RDF>
</x:xmpmeta>
                                                                                                    
                                                                                                    
                                                                                                    
                                                                                                    
                                                                                                    
                                                                                                    
                                                                                                    
                                                                                                    
                                                                                                    
                                                                                                    
                                                                                                    
                                                                                                    
                                                                                                    
                                                                                                    
                                                                                                    
                                                                                                    
                                                                                                    
                                                                                                    
                                                                                                    
                                                                                                    
                           
<?xpacket end="w"?></metadata>
<defs>
    <style>
      .cls-1 {
        fill: #fff;
        fill-rule: evenodd;
      }
    </style>
  </defs>
  <path id="Forma_1" data-name="Forma 1" class="cls-1" d="M1165.97,848.391l-4.84-4.988a0.8,0.8,0,0,0-.97-0.318,0.809,0.809,0,0,1-.97-0.32l-0.06-.071a7.288,7.288,0,1,0-1.26,1.285l0.04,0.032a0.8,0.8,0,0,1,.28.978,0.794,0.794,0,0,0,.29.976l4.84,4.99a0.909,0.909,0,0,0,1.28.021l1.35-1.31A0.9,0.9,0,0,0,1165.97,848.391Zm-9.09-6.542a5.006,5.006,0,1,1,0-7.068A5.029,5.029,0,0,1,1156.88,841.849Z" transform="translate(-1146.06 -831.062)"/>
</svg>
