<?xml version="1.0" encoding="utf-8"?>
<!-- Generator: Adobe Illustrator 16.0.0, SVG Export Plug-In . SVG Version: 6.00 Build 0)  -->
<!DOCTYPE svg PUBLIC "-//W3C//DTD SVG 1.1//EN" "http://www.w3.org/Graphics/SVG/1.1/DTD/svg11.dtd">
<svg version="1.1" id="Visa_Logo" xmlns="http://www.w3.org/2000/svg" xmlns:xlink="http://www.w3.org/1999/xlink" x="0px" y="0px"
	 width="236px" height="109.758px" viewBox="0 0 236 109.758" enable-background="new 0 0 236 109.758" xml:space="preserve">
<g>
	<rect fill="#FFFFFF" width="236" height="109.758"/>
	<linearGradient id="SVGID_1_" gradientUnits="userSpaceOnUse" x1="10" y1="54.8789" x2="226" y2="54.8789">
		<stop  offset="0" style="stop-color:#231F5C"/>
		<stop  offset="1" style="stop-color:#034EA2"/>
	</linearGradient>
	<path fill="url(#SVGID_1_)" d="M92.009,21.234L63.73,88.703H45.281L31.365,34.858c-0.845-3.315-1.578-4.532-4.146-5.926
		C23.023,26.653,16.095,24.517,10,23.19l0.411-1.957h29.701c3.783,0,7.189,2.517,8.048,6.878l7.35,39.043l18.166-45.921H92.009z
		 M164.3,66.673c0.078-17.805-24.622-18.788-24.452-26.744c0.055-2.419,2.358-4.991,7.403-5.65
		c2.497-0.326,9.394-0.579,17.207,3.018l3.067-14.305c-4.203-1.526-9.604-2.992-16.33-2.992c-17.25,0-29.394,9.172-29.491,22.302
		c-0.115,9.717,8.666,15.132,15.282,18.363c6.797,3.306,9.077,5.427,9.052,8.384c-0.051,4.529-5.424,6.525-10.447,6.604
		c-8.774,0.136-13.868-2.372-17.926-4.263l-3.16,14.785c4.074,1.871,11.603,3.503,19.409,3.583
		C152.251,89.758,164.243,80.704,164.3,66.673 M209.857,88.703H226l-14.091-67.469h-14.897c-3.351,0-6.176,1.947-7.43,4.948
		l-26.189,62.521h18.323l3.642-10.08h22.391L209.857,88.703z M190.381,64.797l9.188-25.333l5.289,25.333H190.381z M116.949,21.234
		l-14.433,67.469H85.06l14.438-67.469H116.949z"/>
</g>
</svg>
