<?xml version="1.0" encoding="utf-8"?>
<!-- Generator: Adobe Illustrator 22.1.0, SVG Export Plug-In . SVG Version: 6.00 Build 0)  -->
<svg version="1.1" id="Layer_1" xmlns="http://www.w3.org/2000/svg" xmlns:xlink="http://www.w3.org/1999/xlink" x="0px" y="0px"
	 viewBox="0 0 119.1 77.3" style="enable-background:new 0 0 119.1 77.3;" xml:space="preserve">
<style type="text/css">
	.st0{fill:#FF5F00;}
	.st1{fill:#EB001B;}
	.st2{fill:#F79E1B;}
</style>
<title>mc_vrt_rgb_pos</title>
<g id="Layer_2_1_">
	<g id="Layer_1-2">
		<g id="_Group_">
			<rect x="43.7" y="8.9" class="st0" width="31.5" height="56.6"/>
			<path id="_Path_" class="st1" d="M45.7,37.2c0-11,5.1-21.5,13.8-28.3C43.8-3.4,21.2-0.6,8.9,15s-9.6,38.3,6.1,50.5
				c13.1,10.3,31.4,10.3,44.5,0C50.7,58.7,45.7,48.3,45.7,37.2z"/>
			<path class="st2" d="M117.7,37.2c0,19.9-16.1,36-36,36c-8.1,0-15.9-2.7-22.2-7.7C75.1,53.2,77.8,30.6,65.5,15
				c-1.8-2.3-3.8-4.3-6.1-6.1C75.1-3.4,97.7-0.7,110,15C115,21.3,117.7,29.2,117.7,37.2L117.7,37.2z"/>
			<path class="st2" d="M114.2,59.5v-1.2h0.5v-0.2h-1.2v0.2h0.5v1.2L114.2,59.5z M116.5,59.5v-1.4h-0.4l-0.4,1l-0.4-1H115v1.4h0.3
				v-1l0.4,0.9h0.3l0.4-0.9v1.1L116.5,59.5z"/>
		</g>
	</g>
</g>
</svg>
